<mxfile host="app.diagrams.net" modified="2023-10-17T18:51:18.121Z" agent="Mozilla/5.0 (Windows NT 10.0; Win64; x64) AppleWebKit/537.36 (KHTML, like Gecko) Chrome/118.0.0.0 Safari/537.36" etag="Wjaa5AMgB-bC69Mdcdl1" version="22.0.4" type="device">
  <diagram name="1 oldal" id="eFkGV3JGWRJRINTXJrWT">
    <mxGraphModel dx="1690" dy="1195" grid="1" gridSize="10" guides="1" tooltips="1" connect="1" arrows="1" fold="1" page="1" pageScale="1" pageWidth="827" pageHeight="1169" math="0" shadow="0">
      <root>
        <mxCell id="0" />
        <mxCell id="1" parent="0" />
        <mxCell id="kpz_vJwjHVM8_WOdlChM-1" value="" style="strokeWidth=1;shadow=0;dashed=0;align=center;html=1;shape=mxgraph.mockup.containers.browserWindow;rSize=0;strokeColor=#666666;strokeColor2=#008cff;strokeColor3=#c4c4c4;mainText=,;recursiveResize=0;" vertex="1" parent="1">
          <mxGeometry x="260" y="9" width="1570" height="850" as="geometry" />
        </mxCell>
        <mxCell id="kpz_vJwjHVM8_WOdlChM-2" value="Page 1" style="strokeWidth=1;shadow=0;dashed=0;align=center;html=1;shape=mxgraph.mockup.containers.anchor;fontSize=17;fontColor=#666666;align=left;whiteSpace=wrap;" vertex="1" parent="kpz_vJwjHVM8_WOdlChM-1">
          <mxGeometry x="60" y="12" width="110" height="26" as="geometry" />
        </mxCell>
        <mxCell id="kpz_vJwjHVM8_WOdlChM-3" value="https://www.draw.io" style="strokeWidth=1;shadow=0;dashed=0;align=center;html=1;shape=mxgraph.mockup.containers.anchor;rSize=0;fontSize=17;fontColor=#666666;align=left;" vertex="1" parent="kpz_vJwjHVM8_WOdlChM-1">
          <mxGeometry x="140" y="61" width="250" height="26" as="geometry" />
        </mxCell>
        <mxCell id="kpz_vJwjHVM8_WOdlChM-7" value="" style="shape=image;html=1;verticalAlign=top;verticalLabelPosition=bottom;labelBackgroundColor=#ffffff;imageAspect=0;aspect=fixed;image=https://cdn0.iconfinder.com/data/icons/kameleon-free-pack-rounded/110/Gold-Cart-128.png" vertex="1" parent="kpz_vJwjHVM8_WOdlChM-1">
          <mxGeometry x="717.5" y="270" width="128" height="128" as="geometry" />
        </mxCell>
        <mxCell id="kpz_vJwjHVM8_WOdlChM-8" value="100 000 000 arany" style="text;html=1;strokeColor=none;fillColor=none;align=center;verticalAlign=middle;whiteSpace=wrap;rounded=0;fontSize=42;" vertex="1" parent="kpz_vJwjHVM8_WOdlChM-1">
          <mxGeometry x="638" y="398" width="291" height="122" as="geometry" />
        </mxCell>
        <mxCell id="kpz_vJwjHVM8_WOdlChM-9" value="123 456 789 s" style="text;html=1;strokeColor=none;fillColor=none;align=center;verticalAlign=middle;whiteSpace=wrap;rounded=0;fontSize=42;" vertex="1" parent="kpz_vJwjHVM8_WOdlChM-1">
          <mxGeometry x="636" y="170" width="291" height="122" as="geometry" />
        </mxCell>
        <mxCell id="kpz_vJwjHVM8_WOdlChM-11" value="" style="image;html=1;image=img/lib/clip_art/general/Gear_128x128.png" vertex="1" parent="kpz_vJwjHVM8_WOdlChM-1">
          <mxGeometry x="980" y="200" width="80" height="80" as="geometry" />
        </mxCell>
        <mxCell id="kpz_vJwjHVM8_WOdlChM-16" value="&lt;div style=&quot;&quot;&gt;&lt;span style=&quot;font-size: 22px; background-color: initial;&quot;&gt;&lt;b&gt;db: 999&lt;/b&gt;&lt;/span&gt;&lt;/div&gt;&lt;font style=&quot;font-size: 22px;&quot;&gt;&lt;div style=&quot;&quot;&gt;&lt;span style=&quot;background-color: initial;&quot;&gt;ár: 125k&lt;/span&gt;&lt;/div&gt;&lt;/font&gt;" style="text;html=1;strokeColor=none;fillColor=none;align=right;verticalAlign=bottom;whiteSpace=wrap;rounded=0;fontSize=42;" vertex="1" parent="kpz_vJwjHVM8_WOdlChM-1">
          <mxGeometry x="1070" y="200" width="93" height="68" as="geometry" />
        </mxCell>
        <mxCell id="kpz_vJwjHVM8_WOdlChM-17" value="&lt;div style=&quot;&quot;&gt;&lt;span style=&quot;font-size: 22px;&quot;&gt;&lt;b&gt;Erőforrás neve (999&amp;nbsp; arany/s)&lt;/b&gt;&lt;/span&gt;&lt;/div&gt;&lt;font style=&quot;font-size: 22px;&quot;&gt;&lt;div style=&quot;&quot;&gt;Erőforrás leírása&lt;/div&gt;&lt;/font&gt;" style="text;html=1;strokeColor=none;fillColor=none;align=left;verticalAlign=bottom;whiteSpace=wrap;rounded=0;fontSize=42;" vertex="1" parent="kpz_vJwjHVM8_WOdlChM-1">
          <mxGeometry x="1181" y="202" width="319" height="68" as="geometry" />
        </mxCell>
        <mxCell id="kpz_vJwjHVM8_WOdlChM-15" value="&lt;div style=&quot;&quot;&gt;&lt;span style=&quot;font-size: 22px;&quot;&gt;&lt;b&gt;Erőforrás neve (999&amp;nbsp; arany/s)&lt;/b&gt;&lt;/span&gt;&lt;/div&gt;&lt;font style=&quot;font-size: 22px;&quot;&gt;&lt;div style=&quot;&quot;&gt;Erőforrás leírása&lt;/div&gt;&lt;/font&gt;" style="text;html=1;strokeColor=none;fillColor=none;align=left;verticalAlign=bottom;whiteSpace=wrap;rounded=0;fontSize=42;" vertex="1" parent="kpz_vJwjHVM8_WOdlChM-1">
          <mxGeometry x="1181" y="288" width="319" height="68" as="geometry" />
        </mxCell>
        <mxCell id="kpz_vJwjHVM8_WOdlChM-14" value="&lt;div style=&quot;&quot;&gt;&lt;span style=&quot;font-size: 22px; background-color: initial;&quot;&gt;&lt;b&gt;db: 999&lt;/b&gt;&lt;/span&gt;&lt;/div&gt;&lt;font style=&quot;font-size: 22px;&quot;&gt;&lt;div style=&quot;&quot;&gt;&lt;span style=&quot;background-color: initial;&quot;&gt;ár: 125k&lt;/span&gt;&lt;/div&gt;&lt;/font&gt;" style="text;html=1;strokeColor=none;fillColor=none;align=right;verticalAlign=bottom;whiteSpace=wrap;rounded=0;fontSize=42;" vertex="1" parent="kpz_vJwjHVM8_WOdlChM-1">
          <mxGeometry x="1070" y="288" width="93" height="68" as="geometry" />
        </mxCell>
        <mxCell id="kpz_vJwjHVM8_WOdlChM-19" value="" style="image;html=1;image=img/lib/clip_art/general/Gear_128x128.png" vertex="1" parent="kpz_vJwjHVM8_WOdlChM-1">
          <mxGeometry x="980" y="294" width="80" height="80" as="geometry" />
        </mxCell>
        <mxCell id="kpz_vJwjHVM8_WOdlChM-20" value="" style="image;html=1;image=img/lib/clip_art/general/Gear_128x128.png" vertex="1" parent="kpz_vJwjHVM8_WOdlChM-1">
          <mxGeometry x="980" y="390" width="80" height="80" as="geometry" />
        </mxCell>
        <mxCell id="kpz_vJwjHVM8_WOdlChM-21" value="&lt;div style=&quot;&quot;&gt;&lt;span style=&quot;font-size: 22px; background-color: initial;&quot;&gt;&lt;b&gt;db: 999&lt;/b&gt;&lt;/span&gt;&lt;/div&gt;&lt;font style=&quot;font-size: 22px;&quot;&gt;&lt;div style=&quot;&quot;&gt;&lt;span style=&quot;background-color: initial;&quot;&gt;ár: 125k&lt;/span&gt;&lt;/div&gt;&lt;/font&gt;" style="text;html=1;strokeColor=none;fillColor=none;align=right;verticalAlign=bottom;whiteSpace=wrap;rounded=0;fontSize=42;" vertex="1" parent="kpz_vJwjHVM8_WOdlChM-1">
          <mxGeometry x="1070" y="390" width="93" height="68" as="geometry" />
        </mxCell>
        <mxCell id="kpz_vJwjHVM8_WOdlChM-22" value="&lt;div style=&quot;&quot;&gt;&lt;span style=&quot;font-size: 22px;&quot;&gt;&lt;b&gt;Erőforrás neve (999&amp;nbsp; arany/s)&lt;/b&gt;&lt;/span&gt;&lt;/div&gt;&lt;font style=&quot;font-size: 22px;&quot;&gt;&lt;div style=&quot;&quot;&gt;Erőforrás leírása&lt;/div&gt;&lt;/font&gt;" style="text;html=1;strokeColor=none;fillColor=none;align=left;verticalAlign=bottom;whiteSpace=wrap;rounded=0;fontSize=42;" vertex="1" parent="kpz_vJwjHVM8_WOdlChM-1">
          <mxGeometry x="1181" y="390" width="319" height="68" as="geometry" />
        </mxCell>
        <mxCell id="kpz_vJwjHVM8_WOdlChM-23" value="&lt;div style=&quot;&quot;&gt;&lt;span style=&quot;font-size: 22px;&quot;&gt;&lt;b&gt;Erőforrás neve (999&amp;nbsp; arany/s)&lt;/b&gt;&lt;/span&gt;&lt;/div&gt;&lt;font style=&quot;font-size: 22px;&quot;&gt;&lt;div style=&quot;&quot;&gt;Erőforrás leírása&lt;/div&gt;&lt;/font&gt;" style="text;html=1;strokeColor=none;fillColor=none;align=left;verticalAlign=bottom;whiteSpace=wrap;rounded=0;fontSize=42;" vertex="1" parent="kpz_vJwjHVM8_WOdlChM-1">
          <mxGeometry x="1181" y="478" width="319" height="68" as="geometry" />
        </mxCell>
        <mxCell id="kpz_vJwjHVM8_WOdlChM-24" value="&lt;div style=&quot;&quot;&gt;&lt;span style=&quot;font-size: 22px; background-color: initial;&quot;&gt;&lt;b&gt;db: 999&lt;/b&gt;&lt;/span&gt;&lt;/div&gt;&lt;font style=&quot;font-size: 22px;&quot;&gt;&lt;div style=&quot;&quot;&gt;&lt;span style=&quot;background-color: initial;&quot;&gt;ár: 125k&lt;/span&gt;&lt;/div&gt;&lt;/font&gt;" style="text;html=1;strokeColor=none;fillColor=none;align=right;verticalAlign=bottom;whiteSpace=wrap;rounded=0;fontSize=42;" vertex="1" parent="kpz_vJwjHVM8_WOdlChM-1">
          <mxGeometry x="1070" y="478" width="93" height="68" as="geometry" />
        </mxCell>
        <mxCell id="kpz_vJwjHVM8_WOdlChM-25" value="" style="image;html=1;image=img/lib/clip_art/general/Gear_128x128.png" vertex="1" parent="kpz_vJwjHVM8_WOdlChM-1">
          <mxGeometry x="980" y="484" width="80" height="80" as="geometry" />
        </mxCell>
        <mxCell id="kpz_vJwjHVM8_WOdlChM-26" value="" style="image;html=1;image=img/lib/clip_art/general/Gear_128x128.png" vertex="1" parent="kpz_vJwjHVM8_WOdlChM-1">
          <mxGeometry x="980" y="580" width="80" height="80" as="geometry" />
        </mxCell>
        <mxCell id="kpz_vJwjHVM8_WOdlChM-27" value="&lt;div style=&quot;&quot;&gt;&lt;span style=&quot;font-size: 22px; background-color: initial;&quot;&gt;&lt;b&gt;db: 0&lt;/b&gt;&lt;/span&gt;&lt;/div&gt;&lt;font style=&quot;font-size: 22px;&quot;&gt;&lt;div style=&quot;&quot;&gt;&lt;span style=&quot;background-color: initial;&quot;&gt;ár: ?&lt;/span&gt;&lt;/div&gt;&lt;/font&gt;" style="text;html=1;strokeColor=none;fillColor=none;align=right;verticalAlign=bottom;whiteSpace=wrap;rounded=0;fontSize=42;" vertex="1" parent="kpz_vJwjHVM8_WOdlChM-1">
          <mxGeometry x="1070" y="580" width="93" height="68" as="geometry" />
        </mxCell>
        <mxCell id="kpz_vJwjHVM8_WOdlChM-28" value="&lt;div style=&quot;&quot;&gt;&lt;span style=&quot;font-size: 22px;&quot;&gt;&lt;b&gt;???&lt;/b&gt;&lt;/span&gt;&lt;/div&gt;&lt;font style=&quot;font-size: 22px;&quot;&gt;&lt;div style=&quot;&quot;&gt;???&lt;/div&gt;&lt;/font&gt;" style="text;html=1;strokeColor=none;fillColor=none;align=left;verticalAlign=bottom;whiteSpace=wrap;rounded=0;fontSize=42;" vertex="1" parent="kpz_vJwjHVM8_WOdlChM-1">
          <mxGeometry x="1181" y="580" width="319" height="68" as="geometry" />
        </mxCell>
        <mxCell id="kpz_vJwjHVM8_WOdlChM-29" value="&lt;div style=&quot;&quot;&gt;&lt;span style=&quot;font-size: 22px;&quot;&gt;&lt;b&gt;???&lt;/b&gt;&lt;/span&gt;&lt;/div&gt;&lt;font style=&quot;font-size: 22px;&quot;&gt;&lt;div style=&quot;&quot;&gt;???&lt;/div&gt;&lt;/font&gt;" style="text;html=1;strokeColor=none;fillColor=none;align=left;verticalAlign=bottom;whiteSpace=wrap;rounded=0;fontSize=42;" vertex="1" parent="kpz_vJwjHVM8_WOdlChM-1">
          <mxGeometry x="1181" y="668" width="319" height="68" as="geometry" />
        </mxCell>
        <mxCell id="kpz_vJwjHVM8_WOdlChM-30" value="&lt;div style=&quot;&quot;&gt;&lt;span style=&quot;font-size: 22px; background-color: initial;&quot;&gt;&lt;b&gt;db: 0&lt;/b&gt;&lt;/span&gt;&lt;/div&gt;&lt;font style=&quot;font-size: 22px;&quot;&gt;&lt;div style=&quot;&quot;&gt;&lt;span style=&quot;background-color: initial;&quot;&gt;ár: ?&lt;/span&gt;&lt;/div&gt;&lt;/font&gt;" style="text;html=1;strokeColor=none;fillColor=none;align=right;verticalAlign=bottom;whiteSpace=wrap;rounded=0;fontSize=42;" vertex="1" parent="kpz_vJwjHVM8_WOdlChM-1">
          <mxGeometry x="1070" y="668" width="93" height="68" as="geometry" />
        </mxCell>
        <mxCell id="kpz_vJwjHVM8_WOdlChM-31" value="" style="image;html=1;image=img/lib/clip_art/general/Gear_128x128.png" vertex="1" parent="kpz_vJwjHVM8_WOdlChM-1">
          <mxGeometry x="980" y="674" width="80" height="80" as="geometry" />
        </mxCell>
        <mxCell id="kpz_vJwjHVM8_WOdlChM-32" value="" style="image;html=1;image=img/lib/clip_art/general/Gear_128x128.png" vertex="1" parent="kpz_vJwjHVM8_WOdlChM-1">
          <mxGeometry x="520" y="200" width="80" height="80" as="geometry" />
        </mxCell>
        <mxCell id="kpz_vJwjHVM8_WOdlChM-33" value="" style="image;html=1;image=img/lib/clip_art/general/Gear_128x128.png" vertex="1" parent="kpz_vJwjHVM8_WOdlChM-1">
          <mxGeometry x="520" y="294" width="80" height="80" as="geometry" />
        </mxCell>
        <mxCell id="kpz_vJwjHVM8_WOdlChM-34" value="" style="image;html=1;image=img/lib/clip_art/general/Gear_128x128.png" vertex="1" parent="kpz_vJwjHVM8_WOdlChM-1">
          <mxGeometry x="520" y="390" width="80" height="80" as="geometry" />
        </mxCell>
        <mxCell id="kpz_vJwjHVM8_WOdlChM-35" value="" style="image;html=1;image=img/lib/clip_art/general/Gear_128x128.png" vertex="1" parent="kpz_vJwjHVM8_WOdlChM-1">
          <mxGeometry x="520" y="484" width="80" height="80" as="geometry" />
        </mxCell>
        <mxCell id="kpz_vJwjHVM8_WOdlChM-36" value="" style="image;html=1;image=img/lib/clip_art/general/Gear_128x128.png" vertex="1" parent="kpz_vJwjHVM8_WOdlChM-1">
          <mxGeometry x="520" y="580" width="80" height="80" as="geometry" />
        </mxCell>
        <mxCell id="kpz_vJwjHVM8_WOdlChM-37" value="" style="image;html=1;image=img/lib/clip_art/general/Gear_128x128.png" vertex="1" parent="kpz_vJwjHVM8_WOdlChM-1">
          <mxGeometry x="520" y="674" width="80" height="80" as="geometry" />
        </mxCell>
        <mxCell id="kpz_vJwjHVM8_WOdlChM-38" value="&lt;div style=&quot;&quot;&gt;&lt;span style=&quot;font-size: 22px; background-color: initial;&quot;&gt;&lt;b&gt;db: 999&lt;/b&gt;&lt;/span&gt;&lt;/div&gt;&lt;font style=&quot;font-size: 22px;&quot;&gt;&lt;div style=&quot;&quot;&gt;&lt;span style=&quot;background-color: initial;&quot;&gt;ár: 125k&lt;/span&gt;&lt;/div&gt;&lt;/font&gt;" style="text;html=1;strokeColor=none;fillColor=none;align=left;verticalAlign=bottom;whiteSpace=wrap;rounded=0;fontSize=42;" vertex="1" parent="kpz_vJwjHVM8_WOdlChM-1">
          <mxGeometry x="390" y="200" width="93" height="68" as="geometry" />
        </mxCell>
        <mxCell id="kpz_vJwjHVM8_WOdlChM-39" value="&lt;div style=&quot;&quot;&gt;&lt;span style=&quot;font-size: 22px; background-color: initial;&quot;&gt;&lt;b&gt;db: 999&lt;/b&gt;&lt;/span&gt;&lt;/div&gt;&lt;font style=&quot;font-size: 22px;&quot;&gt;&lt;div style=&quot;&quot;&gt;&lt;span style=&quot;background-color: initial;&quot;&gt;ár: 125k&lt;/span&gt;&lt;/div&gt;&lt;/font&gt;" style="text;html=1;strokeColor=none;fillColor=none;align=left;verticalAlign=bottom;whiteSpace=wrap;rounded=0;fontSize=42;" vertex="1" parent="kpz_vJwjHVM8_WOdlChM-1">
          <mxGeometry x="390" y="288" width="93" height="68" as="geometry" />
        </mxCell>
        <mxCell id="kpz_vJwjHVM8_WOdlChM-40" value="&lt;div style=&quot;&quot;&gt;&lt;span style=&quot;font-size: 22px; background-color: initial;&quot;&gt;&lt;b&gt;db: 999&lt;/b&gt;&lt;/span&gt;&lt;/div&gt;&lt;font style=&quot;font-size: 22px;&quot;&gt;&lt;div style=&quot;&quot;&gt;&lt;span style=&quot;background-color: initial;&quot;&gt;ár: 125k&lt;/span&gt;&lt;/div&gt;&lt;/font&gt;" style="text;html=1;strokeColor=none;fillColor=none;align=left;verticalAlign=bottom;whiteSpace=wrap;rounded=0;fontSize=42;" vertex="1" parent="kpz_vJwjHVM8_WOdlChM-1">
          <mxGeometry x="390" y="390" width="93" height="68" as="geometry" />
        </mxCell>
        <mxCell id="kpz_vJwjHVM8_WOdlChM-41" value="&lt;div style=&quot;&quot;&gt;&lt;span style=&quot;font-size: 22px; background-color: initial;&quot;&gt;&lt;b&gt;db: 999&lt;/b&gt;&lt;/span&gt;&lt;/div&gt;&lt;font style=&quot;font-size: 22px;&quot;&gt;&lt;div style=&quot;&quot;&gt;&lt;span style=&quot;background-color: initial;&quot;&gt;ár: 125k&lt;/span&gt;&lt;/div&gt;&lt;/font&gt;" style="text;html=1;strokeColor=none;fillColor=none;align=left;verticalAlign=bottom;whiteSpace=wrap;rounded=0;fontSize=42;" vertex="1" parent="kpz_vJwjHVM8_WOdlChM-1">
          <mxGeometry x="390" y="478" width="93" height="68" as="geometry" />
        </mxCell>
        <mxCell id="kpz_vJwjHVM8_WOdlChM-42" value="&lt;div style=&quot;&quot;&gt;&lt;span style=&quot;font-size: 22px; background-color: initial;&quot;&gt;&lt;b&gt;db: 0&lt;/b&gt;&lt;/span&gt;&lt;/div&gt;&lt;font style=&quot;font-size: 22px;&quot;&gt;&lt;div style=&quot;&quot;&gt;&lt;span style=&quot;background-color: initial;&quot;&gt;ár: ?&lt;/span&gt;&lt;/div&gt;&lt;/font&gt;" style="text;html=1;strokeColor=none;fillColor=none;align=left;verticalAlign=bottom;whiteSpace=wrap;rounded=0;fontSize=42;" vertex="1" parent="kpz_vJwjHVM8_WOdlChM-1">
          <mxGeometry x="390" y="580" width="93" height="68" as="geometry" />
        </mxCell>
        <mxCell id="kpz_vJwjHVM8_WOdlChM-43" value="&lt;div style=&quot;&quot;&gt;&lt;span style=&quot;font-size: 22px; background-color: initial;&quot;&gt;&lt;b&gt;db: 0&lt;/b&gt;&lt;/span&gt;&lt;/div&gt;&lt;font style=&quot;font-size: 22px;&quot;&gt;&lt;div style=&quot;&quot;&gt;&lt;span style=&quot;background-color: initial;&quot;&gt;ár: ?&lt;/span&gt;&lt;/div&gt;&lt;/font&gt;" style="text;html=1;strokeColor=none;fillColor=none;align=left;verticalAlign=bottom;whiteSpace=wrap;rounded=0;fontSize=42;" vertex="1" parent="kpz_vJwjHVM8_WOdlChM-1">
          <mxGeometry x="390" y="668" width="93" height="68" as="geometry" />
        </mxCell>
        <mxCell id="kpz_vJwjHVM8_WOdlChM-50" value="&lt;font style=&quot;font-size: 22px;&quot;&gt;123 456k arany/click&lt;br&gt;123 456k arany/s&lt;br&gt;&lt;/font&gt;" style="text;html=1;strokeColor=none;fillColor=none;align=center;verticalAlign=middle;whiteSpace=wrap;rounded=0;fontSize=42;" vertex="1" parent="kpz_vJwjHVM8_WOdlChM-1">
          <mxGeometry x="638" y="515" width="291" height="122" as="geometry" />
        </mxCell>
        <mxCell id="kpz_vJwjHVM8_WOdlChM-44" value="&lt;div style=&quot;&quot;&gt;&lt;span style=&quot;font-size: 22px;&quot;&gt;&lt;b&gt;Erőforrás neve (999&amp;nbsp; arany/click)&lt;/b&gt;&lt;/span&gt;&lt;/div&gt;&lt;font style=&quot;font-size: 22px;&quot;&gt;&lt;div style=&quot;&quot;&gt;Erőforrás leírása&lt;/div&gt;&lt;/font&gt;" style="text;html=1;strokeColor=none;fillColor=none;align=right;verticalAlign=bottom;whiteSpace=wrap;rounded=0;fontSize=42;" vertex="1" parent="1">
          <mxGeometry x="290" y="210" width="359" height="68" as="geometry" />
        </mxCell>
        <mxCell id="kpz_vJwjHVM8_WOdlChM-45" value="&lt;div style=&quot;&quot;&gt;&lt;span style=&quot;font-size: 22px;&quot;&gt;&lt;b&gt;Erőforrás neve (999&amp;nbsp; arany/click)&lt;/b&gt;&lt;/span&gt;&lt;/div&gt;&lt;font style=&quot;font-size: 22px;&quot;&gt;&lt;div style=&quot;&quot;&gt;Erőforrás leírása&lt;/div&gt;&lt;/font&gt;" style="text;html=1;strokeColor=none;fillColor=none;align=right;verticalAlign=bottom;whiteSpace=wrap;rounded=0;fontSize=42;" vertex="1" parent="1">
          <mxGeometry x="290" y="312" width="359" height="68" as="geometry" />
        </mxCell>
        <mxCell id="kpz_vJwjHVM8_WOdlChM-46" value="&lt;div style=&quot;&quot;&gt;&lt;span style=&quot;font-size: 22px;&quot;&gt;&lt;b&gt;Erőforrás neve (999&amp;nbsp; arany/click)&lt;/b&gt;&lt;/span&gt;&lt;/div&gt;&lt;font style=&quot;font-size: 22px;&quot;&gt;&lt;div style=&quot;&quot;&gt;Erőforrás leírása&lt;/div&gt;&lt;/font&gt;" style="text;html=1;strokeColor=none;fillColor=none;align=right;verticalAlign=bottom;whiteSpace=wrap;rounded=0;fontSize=42;" vertex="1" parent="1">
          <mxGeometry x="300" y="400" width="349" height="68" as="geometry" />
        </mxCell>
        <mxCell id="kpz_vJwjHVM8_WOdlChM-47" value="&lt;div style=&quot;&quot;&gt;&lt;span style=&quot;font-size: 22px;&quot;&gt;&lt;b&gt;Erőforrás neve (999&amp;nbsp; arany/click)&lt;/b&gt;&lt;/span&gt;&lt;/div&gt;&lt;font style=&quot;font-size: 22px;&quot;&gt;&lt;div style=&quot;&quot;&gt;Erőforrás leírása&lt;/div&gt;&lt;/font&gt;" style="text;html=1;strokeColor=none;fillColor=none;align=right;verticalAlign=bottom;whiteSpace=wrap;rounded=0;fontSize=42;" vertex="1" parent="1">
          <mxGeometry x="300" y="490" width="349" height="68" as="geometry" />
        </mxCell>
        <mxCell id="kpz_vJwjHVM8_WOdlChM-48" value="&lt;div style=&quot;&quot;&gt;&lt;span style=&quot;font-size: 22px;&quot;&gt;&lt;b&gt;???&lt;/b&gt;&lt;/span&gt;&lt;/div&gt;&lt;font style=&quot;font-size: 22px;&quot;&gt;&lt;div style=&quot;&quot;&gt;???&lt;/div&gt;&lt;/font&gt;" style="text;html=1;strokeColor=none;fillColor=none;align=right;verticalAlign=bottom;whiteSpace=wrap;rounded=0;fontSize=42;" vertex="1" parent="1">
          <mxGeometry x="330" y="590" width="319" height="68" as="geometry" />
        </mxCell>
        <mxCell id="kpz_vJwjHVM8_WOdlChM-49" value="&lt;div style=&quot;&quot;&gt;&lt;span style=&quot;font-size: 22px;&quot;&gt;&lt;b&gt;???&lt;/b&gt;&lt;/span&gt;&lt;/div&gt;&lt;font style=&quot;font-size: 22px;&quot;&gt;&lt;div style=&quot;&quot;&gt;???&lt;/div&gt;&lt;/font&gt;" style="text;html=1;strokeColor=none;fillColor=none;align=right;verticalAlign=bottom;whiteSpace=wrap;rounded=0;fontSize=42;" vertex="1" parent="1">
          <mxGeometry x="330" y="680" width="319" height="68" as="geometry" />
        </mxCell>
      </root>
    </mxGraphModel>
  </diagram>
</mxfile>
